<svg width="218" height="214" viewBox="0 0 218 214" fill="none" xmlns="http://www.w3.org/2000/svg">
<g id="Group 1261153627">
<rect id="Rectangle 43" width="218" height="214" rx="20" fill="#5B54FF"/>
<g id="Group 1261153536">
<path id="Path 8059" d="M126.208 95.3735C125.191 92.6195 123.302 90.2774 120.833 88.7068C119.902 88.0971 118.901 87.6032 117.852 87.236L118.631 82.3855C118.781 81.8213 118.814 81.2323 118.729 80.6547C118.643 80.0771 118.441 79.5232 118.135 79.0272C117.878 78.6866 117.538 78.419 117.147 78.2508C116.704 78.0723 116.229 77.9874 115.752 78.0015C115.191 77.9926 114.635 78.0961 114.114 78.3058C113.594 78.5155 113.12 78.8273 112.721 79.223C111.692 80.3336 111.059 81.7568 110.922 83.2687L110.465 86.1462C109.902 86.1462 109.35 86.1854 108.79 86.2246L109.399 82.3997C109.549 81.8353 109.582 81.2462 109.496 80.6686C109.41 80.0909 109.207 79.5372 108.9 79.0414C108.646 78.7 108.306 78.4322 107.916 78.265C107.473 78.0868 106.998 78.002 106.521 78.0158C105.96 78.0069 105.403 78.1103 104.883 78.3201C104.363 78.5298 103.889 78.8416 103.49 79.2373C102.46 80.3479 101.828 81.7711 101.691 83.2829L100.894 88.2331C98.8136 89.1742 96.8999 90.4505 95.2284 92.0117C93.1598 93.9433 91.4563 96.2358 90.2002 98.7781C88.8739 101.471 87.9697 104.354 87.5197 107.325C86.889 109.979 86.8316 112.738 87.3515 115.416C87.8713 118.094 88.9563 120.629 90.5331 122.849C92.0147 124.699 93.9435 126.136 96.1349 127.023L95.278 132.464C95.1286 133.029 95.0959 133.618 95.1818 134.196C95.2676 134.773 95.4703 135.327 95.7773 135.823C96.0286 136.173 96.3684 136.45 96.7617 136.624C97.205 136.802 97.6797 136.887 98.1568 136.873C98.7178 136.881 99.2747 136.777 99.7956 136.568C100.316 136.358 100.791 136.047 101.191 135.652C102.219 134.54 102.851 133.118 102.99 131.606L103.468 128.576C103.953 128.576 104.453 128.608 104.963 128.608H105.108L104.502 132.464C104.352 133.029 104.319 133.618 104.404 134.195C104.49 134.773 104.692 135.327 104.998 135.823C105.25 136.173 105.59 136.449 105.982 136.624C106.432 136.805 106.915 136.89 107.399 136.873C107.959 136.881 108.515 136.777 109.036 136.567C109.556 136.357 110.03 136.046 110.43 135.652C111.459 134.541 112.092 133.118 112.229 131.606L112.891 127.425C114.974 126.767 116.95 125.807 118.758 124.576C120.23 123.583 121.534 122.358 122.618 120.947C123.4 119.985 123.95 118.854 124.226 117.642C124.334 117.21 124.338 116.759 124.237 116.325C124.136 115.891 123.933 115.488 123.645 115.149C123.325 114.844 122.947 114.608 122.532 114.457C122.118 114.307 121.677 114.244 121.237 114.273C120.396 114.232 119.566 114.473 118.875 114.957C117.409 116.182 116.219 117.151 115.306 117.863C114.372 118.593 113.393 119.262 112.374 119.865C110.394 121.085 108.11 121.716 105.788 121.684C104.089 121.721 102.419 121.24 100.997 120.306C99.5764 119.316 98.5238 117.879 98.0046 116.221C97.3634 114.198 97.22 112.048 97.5867 109.957H117.59C119.787 110.05 121.977 109.651 124.002 108.789C124.885 108.256 125.622 107.511 126.149 106.622C126.676 105.733 126.976 104.727 127.023 103.693C127.475 100.896 127.195 98.0282 126.208 95.3735ZM117.073 104.045H98.5038C99.1363 101.034 100.61 98.2661 102.753 96.068C104.564 94.3311 106.979 93.3773 109.481 93.4113C110.627 93.3339 111.774 93.5345 112.827 93.9962C113.879 94.4579 114.806 95.1672 115.529 96.0644C117.013 98.4386 117.564 101.284 117.073 104.045Z" fill="white"/>
<path id="Path 8066" opacity="0.2" d="M130.55 95.3735C129.532 92.6195 127.644 90.2774 125.175 88.7068C124.244 88.0971 123.243 87.6032 122.194 87.236L122.973 82.3855C123.122 81.8213 123.156 81.2323 123.071 80.6547C122.985 80.0771 122.783 79.5232 122.477 79.0272C122.22 78.6866 121.88 78.419 121.489 78.2508C121.046 78.0723 120.571 77.9874 120.094 78.0015C119.533 77.9926 118.977 78.0961 118.456 78.3058C117.936 78.5155 117.462 78.8273 117.063 79.223C116.034 80.3336 115.401 81.7568 115.264 83.2687L114.807 86.1462C114.244 86.1462 113.692 86.1854 113.132 86.2246L113.741 82.3997C113.891 81.8353 113.923 81.2462 113.837 80.6686C113.752 80.0909 113.549 79.5372 113.242 79.0414C112.987 78.7 112.648 78.4322 112.258 78.265C111.814 78.0868 111.34 78.002 110.862 78.0158C110.302 78.0069 109.745 78.1103 109.225 78.3201C108.704 78.5298 108.231 78.8416 107.831 79.2373C106.802 80.3479 106.169 81.7711 106.033 83.2829L105.236 88.2331C103.155 89.1742 101.242 90.4505 99.5702 92.0117C97.5016 93.9433 95.7981 96.2358 94.542 98.7781C93.2157 101.471 92.3115 104.354 91.8615 107.325C91.2308 109.979 91.1734 112.738 91.6933 115.416C92.2131 118.094 93.2981 120.629 94.8749 122.849C96.3565 124.699 98.2853 126.136 100.477 127.023L99.6198 132.464C99.4704 133.029 99.4377 133.618 99.5236 134.196C99.6094 134.773 99.8121 135.327 100.119 135.823C100.37 136.173 100.71 136.45 101.103 136.624C101.547 136.802 102.022 136.887 102.499 136.873C103.06 136.881 103.617 136.777 104.137 136.568C104.658 136.358 105.133 136.047 105.533 135.652C106.561 134.54 107.193 133.118 107.332 131.606L107.81 128.576C108.295 128.576 108.794 128.608 109.304 128.608H109.45L108.844 132.464C108.694 133.029 108.661 133.618 108.746 134.195C108.831 134.773 109.033 135.327 109.34 135.823C109.592 136.173 109.932 136.449 110.324 136.624C110.774 136.805 111.256 136.89 111.741 136.873C112.301 136.881 112.857 136.777 113.377 136.567C113.898 136.357 114.371 136.046 114.772 135.652C115.801 134.541 116.434 133.118 116.57 131.606L117.233 127.425C119.315 126.767 121.292 125.807 123.1 124.576C124.572 123.583 125.875 122.358 126.96 120.947C127.741 119.985 128.291 118.854 128.567 117.642C128.676 117.21 128.68 116.759 128.579 116.325C128.478 115.891 128.275 115.488 127.987 115.149C127.667 114.844 127.288 114.608 126.874 114.457C126.46 114.307 126.018 114.244 125.579 114.273C124.738 114.232 123.907 114.473 123.217 114.957C121.751 116.182 120.561 117.151 119.648 117.863C118.714 118.593 117.735 119.262 116.716 119.865C114.735 121.085 112.452 121.716 110.129 121.684C108.431 121.721 106.761 121.24 105.338 120.306C103.918 119.316 102.866 117.879 102.346 116.221C101.705 114.198 101.562 112.048 101.929 109.957H121.932C124.129 110.05 126.319 109.651 128.344 108.789C129.226 108.256 129.964 107.511 130.491 106.622C131.018 105.733 131.318 104.727 131.365 103.693C131.817 100.896 131.536 98.0282 130.55 95.3735ZM121.415 104.045H102.846C103.478 101.034 104.952 98.2661 107.095 96.068C108.905 94.3311 111.321 93.3773 113.823 93.4113C114.968 93.3339 116.116 93.5345 117.168 93.9962C118.221 94.4579 119.148 95.1672 119.871 96.0644C121.355 98.4386 121.906 101.284 121.415 104.045Z" fill="white"/>
</g>
</g>
</svg>
