<svg width="24" height="24" viewBox="0 0 24 24" fill="none" xmlns="http://www.w3.org/2000/svg">
<path d="M10.9988 2.60869L8.70313 2.08628C8.25693 1.98505 7.79515 1.97277 7.3442 2.05012C6.89325 2.12747 6.46197 2.29295 6.07503 2.53709C5.68809 2.78123 5.35307 3.09924 5.08913 3.47295C4.82519 3.84665 4.63751 4.2687 4.53682 4.71498L4.0127 7.03374C4.77353 5.822 5.79576 4.79574 7.00453 4.03009C8.2133 3.26444 9.57802 2.77879 10.9988 2.60869Z" fill="white"/>
<path d="M2.60874 13.0049L2.08629 15.3045C1.98505 15.7506 1.97276 16.2124 2.05012 16.6633C2.12749 17.1142 2.29298 17.5454 2.53714 17.9323C2.7813 18.3192 3.09934 18.6542 3.47308 18.9182C3.84681 19.1821 4.26891 19.3697 4.71523 19.4704L7.0342 19.9945C5.82188 19.2332 4.79524 18.2104 4.0295 17.001C3.26376 15.7916 2.77832 14.4262 2.60874 13.0049Z" fill="white"/>
<path d="M19.2858 4.53677L16.9668 4.0127C18.1793 4.77311 19.2063 5.79508 19.9726 7.00377C20.7389 8.21245 21.2251 9.57723 21.3956 10.9981L21.9147 8.69854C22.1179 7.79807 21.9551 6.85377 21.4621 6.07331C20.9691 5.29285 20.1863 4.74015 19.2858 4.53677Z" fill="white"/>
<path d="M13.0054 21.3942L15.3052 21.9133C15.7514 22.0145 16.2131 22.0268 16.6641 21.9494C17.1151 21.8721 17.5463 21.7066 17.9333 21.4625C18.3202 21.2183 18.6552 20.9003 18.9192 20.5266C19.1831 20.1529 19.3708 19.7309 19.4715 19.2846L19.9956 16.9658C19.2351 18.1782 18.2131 19.2051 17.0043 19.9713C15.7955 20.7376 14.4306 21.2237 13.0095 21.3942H13.0054Z" fill="white"/>
<path d="M12.002 3.60156C10.3405 3.60156 8.71624 4.09423 7.33471 5.01725C5.95318 5.94027 4.87641 7.25221 4.24056 8.78714C3.60471 10.3221 3.43835 12.0111 3.7625 13.6405C4.08665 15.27 4.88676 16.7668 6.06166 17.9416C7.23655 19.1164 8.73346 19.9164 10.3631 20.2405C11.9927 20.5647 13.6819 20.3983 15.2169 19.7625C16.752 19.1267 18.0641 18.0501 18.9872 16.6687C19.9103 15.2872 20.403 13.6632 20.403 12.0018C20.4031 10.8986 20.1859 9.80622 19.7637 8.78701C19.3416 7.7678 18.7228 6.84173 17.9426 6.06168C17.1625 5.28163 16.2364 4.66288 15.2171 4.24077C14.1978 3.81866 13.1053 3.60145 12.002 3.60156ZM9.90221 6.22693C10.3175 6.22693 10.7235 6.35008 11.0688 6.58079C11.4141 6.8115 11.6833 7.13941 11.8422 7.52307C12.0011 7.90673 12.0427 8.32889 11.9617 8.73618C11.8807 9.14347 11.6807 9.51759 11.387 9.81123C11.0933 10.1049 10.7192 10.3048 10.3119 10.3859C9.90453 10.4669 9.48233 10.4253 9.09864 10.2664C8.71495 10.1075 8.387 9.83834 8.15627 9.49306C7.92554 9.14778 7.80239 8.74183 7.80239 8.32657C7.80239 7.76971 8.02362 7.23566 8.41741 6.8419C8.8112 6.44814 9.3453 6.22693 9.90221 6.22693ZM8.32734 16.2018C7.91203 16.2018 7.50606 16.0787 7.16074 15.848C6.81543 15.6173 6.54629 15.2894 6.38736 14.9057C6.22843 14.5221 6.18685 14.0999 6.26787 13.6926C6.34889 13.2853 6.54888 12.9112 6.84254 12.6176C7.13621 12.3239 7.51036 12.1239 7.91769 12.0429C8.32501 11.9619 8.74722 12.0035 9.13091 12.1624C9.5146 12.3213 9.84255 12.5904 10.0733 12.9357C10.304 13.281 10.4272 13.687 10.4272 14.1022C10.4272 14.3779 10.3728 14.651 10.2673 14.9057C10.1618 15.1605 10.0071 15.3919 9.81214 15.5869C9.61715 15.7818 9.38567 15.9365 9.13091 16.042C8.87615 16.1475 8.60309 16.2018 8.32734 16.2018ZM10.9521 12.0018C10.9475 11.7932 11.0051 11.588 11.1176 11.4123C11.2301 11.2366 11.3924 11.0984 11.5838 11.0154C11.7752 10.9323 11.987 10.9082 12.1922 10.946C12.3974 10.9839 12.5866 11.082 12.7358 11.2278C12.885 11.3736 12.9873 11.5606 13.0297 11.7649C13.0722 11.9691 13.0528 12.1814 12.974 12.3746C12.8953 12.5678 12.7608 12.7331 12.5877 12.8496C12.4145 12.966 12.2107 13.0282 12.002 13.0282C11.7276 13.0283 11.464 12.9209 11.2678 12.729C11.0715 12.5372 10.9582 12.2761 10.9521 12.0018ZM14.101 17.7766C13.6857 17.7766 13.2797 17.6534 12.9344 17.4227C12.5891 17.192 12.32 16.8641 12.161 16.4804C12.0021 16.0968 11.9605 15.6746 12.0415 15.2673C12.1226 14.86 12.3226 14.4859 12.6162 14.1923C12.9099 13.8986 13.284 13.6987 13.6914 13.6177C14.0987 13.5366 14.5209 13.5782 14.9046 13.7371C15.2883 13.8961 15.6162 14.1652 15.8469 14.5104C16.0777 14.8557 16.2008 15.2617 16.2008 15.6769C16.2008 16.2338 15.9796 16.7678 15.5858 17.1616C15.192 17.5554 14.6579 17.7766 14.101 17.7766ZM15.6759 12.0018C15.2606 12.0018 14.8546 11.8786 14.5093 11.6479C14.164 11.4172 13.8948 11.0893 13.7359 10.7056C13.577 10.322 13.5354 9.89979 13.6164 9.49251C13.6974 9.08522 13.8974 8.7111 14.1911 8.41746C14.4847 8.12382 14.8589 7.92385 15.2662 7.84283C15.6735 7.76182 16.0958 7.8034 16.4794 7.96232C16.8631 8.12123 17.1911 8.39035 17.4218 8.73563C17.6525 9.08091 17.7757 9.48686 17.7757 9.90212C17.7757 10.4587 17.5547 10.9925 17.1613 11.3862C16.7678 11.7799 16.2342 12.0013 15.6775 12.0018H15.6759Z" fill="white"/>
</svg>
